<mxfile host="drawio-plugin" modified="2023-09-21T19:12:54.873Z" agent="5.0 (Windows NT 6.2; Win64; x64) AppleWebKit/537.36 (KHTML, like Gecko) Chrome/104.0.5112.102 Safari/537.36" etag="TqXO4BVnfbOVHcJdtBfv" version="20.5.3" type="embed"><diagram id="bCAIXZ2_yCsXV2aJ_-og" name="Page-1"><mxGraphModel dx="523" dy="461" grid="1" gridSize="10" guides="1" tooltips="1" connect="1" arrows="1" fold="1" page="1" pageScale="1" pageWidth="850" pageHeight="1100" math="0" shadow="0"><root><mxCell id="0"/><mxCell id="1" parent="0"/><mxCell id="2" value="Movie" style="rounded=1;whiteSpace=wrap;html=1;fillColor=default;fontColor=#333333;strokeColor=#666666;" parent="1" vertex="1"><mxGeometry x="220" y="240" width="120" height="60" as="geometry"/></mxCell><mxCell id="18" style="edgeStyle=orthogonalEdgeStyle;html=1;entryX=1;entryY=0.5;entryDx=0;entryDy=0;exitX=0;exitY=0.5;exitDx=0;exitDy=0;" parent="1" source="5" target="2" edge="1"><mxGeometry relative="1" as="geometry"/></mxCell><mxCell id="49" style="edgeStyle=none;html=1;exitX=0.5;exitY=1;exitDx=0;exitDy=0;entryX=0.5;entryY=0;entryDx=0;entryDy=0;strokeColor=default;startFill=1;endFill=1;endArrow=none;" parent="1" source="4" target="48" edge="1"><mxGeometry relative="1" as="geometry"/></mxCell><mxCell id="4" value="Review" style="rounded=1;whiteSpace=wrap;html=1;fillColor=default;fontColor=#333333;strokeColor=#666666;" parent="1" vertex="1"><mxGeometry x="550" y="240" width="120" height="60" as="geometry"/></mxCell><mxCell id="5" value="Has" style="rhombus;whiteSpace=wrap;html=1;fillColor=#fff2cc;strokeColor=#d6b656;" parent="1" vertex="1"><mxGeometry x="410" y="230" width="80" height="80" as="geometry"/></mxCell><mxCell id="12" value="Has" style="rhombus;whiteSpace=wrap;html=1;fillColor=#fff2cc;strokeColor=#d6b656;" parent="1" vertex="1"><mxGeometry x="570" y="120" width="80" height="80" as="geometry"/></mxCell><mxCell id="21" style="edgeStyle=orthogonalEdgeStyle;html=1;entryX=0.5;entryY=1;entryDx=0;entryDy=0;exitX=0.5;exitY=0;exitDx=0;exitDy=0;" parent="1" source="19" target="2" edge="1"><mxGeometry relative="1" as="geometry"/></mxCell><mxCell id="20" value="Age rating" style="rounded=1;whiteSpace=wrap;html=1;fillColor=default;fontColor=#333333;strokeColor=#666666;" parent="1" vertex="1"><mxGeometry x="220" y="460" width="120" height="60" as="geometry"/></mxCell><mxCell id="19" value="Has" style="rhombus;whiteSpace=wrap;html=1;fillColor=#fff2cc;strokeColor=#d6b656;" parent="1" vertex="1"><mxGeometry x="240" y="340" width="80" height="80" as="geometry"/></mxCell><mxCell id="24" value="Rating_ID" style="rounded=1;whiteSpace=wrap;html=1;fontStyle=4;fillColor=#f8cecc;strokeColor=#b85450;" parent="1" vertex="1"><mxGeometry x="170" y="550" width="100" height="35" as="geometry"/></mxCell><mxCell id="25" value="Rating" style="rounded=1;whiteSpace=wrap;html=1;fillColor=#dae8fc;strokeColor=#6c8ebf;" parent="1" vertex="1"><mxGeometry x="290" y="550" width="100" height="35" as="geometry"/></mxCell><mxCell id="26" value="" style="endArrow=none;html=1;exitX=0.5;exitY=0;exitDx=0;exitDy=0;entryX=0.5;entryY=1;entryDx=0;entryDy=0;" parent="1" source="24" target="20" edge="1"><mxGeometry width="50" height="50" relative="1" as="geometry"><mxPoint x="360" y="400" as="sourcePoint"/><mxPoint x="410" y="350" as="targetPoint"/></mxGeometry></mxCell><mxCell id="27" value="" style="endArrow=none;html=1;exitX=0.5;exitY=0;exitDx=0;exitDy=0;entryX=0.5;entryY=1;entryDx=0;entryDy=0;" parent="1" source="25" target="20" edge="1"><mxGeometry width="50" height="50" relative="1" as="geometry"><mxPoint x="210" y="560" as="sourcePoint"/><mxPoint x="290" y="530" as="targetPoint"/></mxGeometry></mxCell><mxCell id="42" style="edgeStyle=none;html=1;exitX=0.75;exitY=0;exitDx=0;exitDy=0;strokeColor=default;startFill=1;endFill=1;endArrow=none;" parent="1" source="28" edge="1"><mxGeometry relative="1" as="geometry"><mxPoint x="220" y="270" as="targetPoint"/></mxGeometry></mxCell><mxCell id="28" value="Production budget" style="rounded=1;whiteSpace=wrap;html=1;fillColor=#dae8fc;strokeColor=#6c8ebf;" parent="1" vertex="1"><mxGeometry x="80" y="340" width="100" height="35" as="geometry"/></mxCell><mxCell id="43" style="edgeStyle=none;html=1;exitX=0.75;exitY=0;exitDx=0;exitDy=0;entryX=0;entryY=0.5;entryDx=0;entryDy=0;strokeColor=default;startFill=1;endFill=1;endArrow=none;" parent="1" source="30" target="2" edge="1"><mxGeometry relative="1" as="geometry"/></mxCell><mxCell id="30" value="Worldwide box office" style="rounded=1;whiteSpace=wrap;html=1;fillColor=#dae8fc;strokeColor=#6c8ebf;" parent="1" vertex="1"><mxGeometry x="120" y="390" width="100" height="35" as="geometry"/></mxCell><mxCell id="39" style="edgeStyle=none;html=1;exitX=1;exitY=0.5;exitDx=0;exitDy=0;strokeColor=default;startFill=1;endFill=1;endArrow=none;" parent="1" source="31" edge="1"><mxGeometry relative="1" as="geometry"><mxPoint x="280" y="240" as="targetPoint"/></mxGeometry></mxCell><mxCell id="31" value="Release Date" style="rounded=1;whiteSpace=wrap;html=1;fillColor=#dae8fc;strokeColor=#6c8ebf;" parent="1" vertex="1"><mxGeometry x="60" y="177.5" width="100" height="35" as="geometry"/></mxCell><mxCell id="40" style="edgeStyle=none;html=1;exitX=1;exitY=0.5;exitDx=0;exitDy=0;entryX=0;entryY=0.5;entryDx=0;entryDy=0;strokeColor=default;startFill=1;endFill=1;endArrow=none;" parent="1" source="32" target="2" edge="1"><mxGeometry relative="1" as="geometry"/></mxCell><mxCell id="32" value="Metascore" style="rounded=1;whiteSpace=wrap;html=1;fillColor=#dae8fc;strokeColor=#6c8ebf;" parent="1" vertex="1"><mxGeometry x="60" y="230" width="100" height="35" as="geometry"/></mxCell><mxCell id="38" style="edgeStyle=none;html=1;exitX=0.75;exitY=1;exitDx=0;exitDy=0;entryX=0.5;entryY=0;entryDx=0;entryDy=0;strokeColor=default;startFill=1;endFill=1;endArrow=none;" parent="1" source="33" target="2" edge="1"><mxGeometry relative="1" as="geometry"/></mxCell><mxCell id="33" value="Title" style="rounded=1;whiteSpace=wrap;html=1;fillColor=#dae8fc;strokeColor=#6c8ebf;" parent="1" vertex="1"><mxGeometry x="110" y="130" width="100" height="35" as="geometry"/></mxCell><mxCell id="37" style="edgeStyle=orthogonalEdgeStyle;html=1;exitX=0.5;exitY=1;exitDx=0;exitDy=0;strokeColor=default;anchorPointDirection=1;startFill=1;endFill=1;endArrow=none;" parent="1" source="34" target="2" edge="1"><mxGeometry relative="1" as="geometry"/></mxCell><mxCell id="34" value="Movie_ID" style="rounded=1;whiteSpace=wrap;html=1;fontStyle=4;fillColor=#f8cecc;strokeColor=#b85450;" parent="1" vertex="1"><mxGeometry x="230" y="130" width="100" height="35" as="geometry"/></mxCell><mxCell id="41" style="edgeStyle=none;html=1;exitX=1;exitY=0.5;exitDx=0;exitDy=0;strokeColor=default;startFill=1;endFill=1;endArrow=none;" parent="1" source="36" edge="1"><mxGeometry relative="1" as="geometry"><mxPoint x="220" y="270" as="targetPoint"/></mxGeometry></mxCell><mxCell id="36" value="User score" style="rounded=1;whiteSpace=wrap;html=1;fillColor=#dae8fc;strokeColor=#6c8ebf;" parent="1" vertex="1"><mxGeometry x="60" y="287.5" width="100" height="35" as="geometry"/></mxCell><mxCell id="48" value="Review_ID" style="rounded=1;whiteSpace=wrap;html=1;fontStyle=4;fillColor=#f8cecc;strokeColor=#b85450;" parent="1" vertex="1"><mxGeometry x="560" y="350" width="100" height="35" as="geometry"/></mxCell><mxCell id="54" style="edgeStyle=none;html=1;exitX=0;exitY=0.5;exitDx=0;exitDy=0;strokeColor=default;startFill=1;endFill=1;endArrow=none;entryX=1;entryY=0.5;entryDx=0;entryDy=0;" parent="1" source="50" target="4" edge="1"><mxGeometry relative="1" as="geometry"/></mxCell><mxCell id="50" value="Positive Emotion" style="rounded=1;whiteSpace=wrap;html=1;fillColor=#dae8fc;strokeColor=#6c8ebf;" parent="1" vertex="1"><mxGeometry x="710" y="251.25" width="100" height="35" as="geometry"/></mxCell><mxCell id="53" style="edgeStyle=none;html=1;exitX=0;exitY=0.5;exitDx=0;exitDy=0;strokeColor=default;startFill=1;endFill=1;endArrow=none;" parent="1" source="51" edge="1"><mxGeometry relative="1" as="geometry"><mxPoint x="670" y="270" as="targetPoint"/></mxGeometry></mxCell><mxCell id="51" value="Negative Emotion" style="rounded=1;whiteSpace=wrap;html=1;fillColor=#dae8fc;strokeColor=#6c8ebf;" parent="1" vertex="1"><mxGeometry x="710" y="206.25" width="100" height="35" as="geometry"/></mxCell><mxCell id="63" value="Role" style="rounded=1;whiteSpace=wrap;html=1;fillColor=default;fontColor=#333333;strokeColor=#666666;" parent="1" vertex="1"><mxGeometry x="547" y="20" width="120" height="65" as="geometry"/></mxCell><mxCell id="69" style="edgeStyle=none;html=1;exitX=1;exitY=0.5;exitDx=0;exitDy=0;entryX=0;entryY=0.5;entryDx=0;entryDy=0;strokeColor=default;startFill=1;endFill=1;endArrow=none;" parent="1" source="67" target="63" edge="1"><mxGeometry relative="1" as="geometry"/></mxCell><mxCell id="67" value="Role_ID" style="rounded=1;whiteSpace=wrap;html=1;fontStyle=4;fillColor=#f8cecc;strokeColor=#b85450;" parent="1" vertex="1"><mxGeometry x="375" y="20" width="100" height="35" as="geometry"/></mxCell><mxCell id="70" style="edgeStyle=none;html=1;exitX=1;exitY=0.5;exitDx=0;exitDy=0;entryX=0;entryY=0.5;entryDx=0;entryDy=0;strokeColor=default;startFill=1;endFill=1;endArrow=none;" parent="1" source="68" target="63" edge="1"><mxGeometry relative="1" as="geometry"/></mxCell><mxCell id="68" value="Reviewer_role" style="rounded=1;whiteSpace=wrap;html=1;fillColor=#dae8fc;strokeColor=#6c8ebf;" parent="1" vertex="1"><mxGeometry x="375" y="65" width="100" height="35" as="geometry"/></mxCell><mxCell id="pUjH3F_Yn9vjCo1Dtj6w-74" value="" style="shape=link;html=1;rounded=0;entryX=0.5;entryY=0;entryDx=0;entryDy=0;exitX=0.5;exitY=1;exitDx=0;exitDy=0;" parent="1" source="19" target="20" edge="1"><mxGeometry width="100" relative="1" as="geometry"><mxPoint x="380" y="425" as="sourcePoint"/><mxPoint x="480" y="505" as="targetPoint"/></mxGeometry></mxCell><mxCell id="pUjH3F_Yn9vjCo1Dtj6w-75" value="" style="shape=link;html=1;rounded=0;exitX=1;exitY=0.5;exitDx=0;exitDy=0;entryX=0;entryY=0.5;entryDx=0;entryDy=0;" parent="1" source="5" target="4" edge="1"><mxGeometry width="100" relative="1" as="geometry"><mxPoint x="470" y="299" as="sourcePoint"/><mxPoint x="570" y="299" as="targetPoint"/></mxGeometry></mxCell><mxCell id="pUjH3F_Yn9vjCo1Dtj6w-76" value="" style="shape=link;html=1;rounded=0;exitX=0.5;exitY=1;exitDx=0;exitDy=0;entryX=0.5;entryY=0;entryDx=0;entryDy=0;" parent="1" target="12" edge="1"><mxGeometry width="100" relative="1" as="geometry"><mxPoint x="610" y="90" as="sourcePoint"/><mxPoint x="580" y="130" as="targetPoint"/></mxGeometry></mxCell><mxCell id="pUjH3F_Yn9vjCo1Dtj6w-80" value="" style="shape=link;html=1;rounded=0;exitX=0.5;exitY=1;exitDx=0;exitDy=0;" parent="1" source="12" edge="1"><mxGeometry width="100" relative="1" as="geometry"><mxPoint x="410" y="200" as="sourcePoint"/><mxPoint x="610" y="230" as="targetPoint"/></mxGeometry></mxCell><mxCell id="pUjH3F_Yn9vjCo1Dtj6w-81" value="" style="endArrow=classic;html=1;rounded=0;entryX=0.5;entryY=0;entryDx=0;entryDy=0;" parent="1" target="4" edge="1"><mxGeometry width="50" height="50" relative="1" as="geometry"><mxPoint x="610" y="230" as="sourcePoint"/><mxPoint x="480" y="170" as="targetPoint"/></mxGeometry></mxCell><mxCell id="pUjH3F_Yn9vjCo1Dtj6w-88" value="" style="endArrow=classic;html=1;rounded=0;" parent="1" edge="1"><mxGeometry width="50" height="50" relative="1" as="geometry"><mxPoint x="610" y="90" as="sourcePoint"/><mxPoint x="610" y="80" as="targetPoint"/></mxGeometry></mxCell><mxCell id="71" value="Has" style="rhombus;whiteSpace=wrap;html=1;fillColor=#fff2cc;strokeColor=#d6b656;" parent="1" vertex="1"><mxGeometry x="370" y="327.5" width="80" height="80" as="geometry"/></mxCell><mxCell id="75" value="Genre" style="rounded=1;whiteSpace=wrap;html=1;fillColor=default;fontColor=#333333;strokeColor=#666666;" parent="1" vertex="1"><mxGeometry x="487" y="437.5" width="120" height="60" as="geometry"/></mxCell><mxCell id="76" value="Genre_id" style="rounded=1;whiteSpace=wrap;html=1;fontStyle=4;fillColor=#f8cecc;strokeColor=#b85450;" parent="1" vertex="1"><mxGeometry x="417" y="527.5" width="100" height="35" as="geometry"/></mxCell><mxCell id="77" value="Genre" style="rounded=1;whiteSpace=wrap;html=1;fillColor=#dae8fc;strokeColor=#6c8ebf;" parent="1" vertex="1"><mxGeometry x="557" y="527.5" width="100" height="35" as="geometry"/></mxCell><mxCell id="78" value="" style="endArrow=none;html=1;exitX=0.5;exitY=0;exitDx=0;exitDy=0;entryX=0.5;entryY=1;entryDx=0;entryDy=0;" parent="1" source="76" target="75" edge="1"><mxGeometry width="50" height="50" relative="1" as="geometry"><mxPoint x="627" y="377.5" as="sourcePoint"/><mxPoint x="677" y="327.5" as="targetPoint"/></mxGeometry></mxCell><mxCell id="79" value="" style="endArrow=none;html=1;exitX=0.5;exitY=0;exitDx=0;exitDy=0;entryX=0.5;entryY=1;entryDx=0;entryDy=0;" parent="1" source="77" target="75" edge="1"><mxGeometry width="50" height="50" relative="1" as="geometry"><mxPoint x="477" y="537.5" as="sourcePoint"/><mxPoint x="557" y="507.5" as="targetPoint"/></mxGeometry></mxCell><mxCell id="81" value="" style="endArrow=none;html=1;entryX=1;entryY=1;entryDx=0;entryDy=0;exitX=0;exitY=0;exitDx=0;exitDy=0;shape=link;" parent="1" source="75" target="71" edge="1"><mxGeometry width="50" height="50" relative="1" as="geometry"><mxPoint x="486.9963636363635" y="437.86363636363626" as="sourcePoint"/><mxPoint x="437.36000000000047" y="390" as="targetPoint"/></mxGeometry></mxCell><mxCell id="82" style="edgeStyle=none;html=1;entryX=1;entryY=1;entryDx=0;entryDy=0;strokeColor=default;startFill=1;endFill=1;endArrow=none;" parent="1" source="71" target="2" edge="1"><mxGeometry relative="1" as="geometry"><mxPoint x="720" y="102.5" as="sourcePoint"/><mxPoint x="680" y="70" as="targetPoint"/></mxGeometry></mxCell><mxCell id="83" value="Overall sentiment" style="rounded=1;whiteSpace=wrap;html=1;fillColor=#dae8fc;strokeColor=#6c8ebf;dashed=1;" parent="1" vertex="1"><mxGeometry x="710" y="298.75" width="100" height="35" as="geometry"/></mxCell><mxCell id="84" style="edgeStyle=none;html=1;exitX=0;exitY=0.5;exitDx=0;exitDy=0;strokeColor=default;startFill=1;endFill=1;endArrow=none;entryX=1;entryY=0.5;entryDx=0;entryDy=0;" parent="1" source="83" target="4" edge="1"><mxGeometry relative="1" as="geometry"><mxPoint x="710" y="302.5" as="sourcePoint"/><mxPoint x="680" y="280" as="targetPoint"/></mxGeometry></mxCell></root></mxGraphModel></diagram></mxfile>